  0
SECTION
  2
HEADER
  9
$ACADVER
  1
AC1024
  9
$ACADMAINTVER
 70
6
  9
$DWGCODEPAGE
  3
ANSI_1252
  9
$LASTSAVEDBY
  1
ezdxf
  9
$INSBASE
 10
0.0
 20
0.0
 30
0.0
  9
$EXTMIN
 10
1e+20
 20
1e+20
 30
1e+20
  9
$EXTMAX
 10
-1e+20
 20
-1e+20
 30
-1e+20
  9
$LIMMIN
 10
0.0
 20
0.0
  9
$LIMMAX
 10
420.0
 20
297.0
  9
$ORTHOMODE
 70
0
  9
$REGENMODE
 70
1
  9
$FILLMODE
 70
1
  9
$QTEXTMODE
 70
0
  9
$MIRRTEXT
 70
1
  9
$LTSCALE
 40
1.0
  9
$ATTMODE
 70
1
  9
$TEXTSIZE
 40
2.5
  9
$TRACEWID
 40
1.0
  9
$TEXTSTYLE
  7
Standard
  9
$CLAYER
  8
0
  9
$CELTYPE
  6
ByLayer
  9
$CECOLOR
 62
256
  9
$CELTSCALE
 40
1.0
  9
$DISPSILH
 70
0
  9
$DIMSCALE
 40
1.0
  9
$DIMASZ
 40
2.5
  9
$DIMEXO
 40
0.625
  9
$DIMDLI
 40
3.75
  9
$DIMRND
 40
0.0
  9
$DIMDLE
 40
0.0
  9
$DIMEXE
 40
1.25
  9
$DIMTP
 40
0.0
  9
$DIMTM
 40
0.0
  9
$DIMTXT
 40
2.5
  9
$DIMCEN
 40
2.5
  9
$DIMTSZ
 40
0.0
  9
$DIMTOL
 70
0
  9
$DIMLIM
 70
0
  9
$DIMTIH
 70
0
  9
$DIMTOH
 70
0
  9
$DIMSE1
 70
0
  9
$DIMSE2
 70
0
  9
$DIMTAD
 70
1
  9
$DIMZIN
 70
8
  9
$DIMBLK
  1

  9
$DIMASO
 70
1
  9
$DIMSHO
 70
1
  9
$DIMPOST
  1

  9
$DIMAPOST
  1

  9
$DIMALT
 70
0
  9
$DIMALTD
 70
3
  9
$DIMALTF
 40
0.03937007874
  9
$DIMLFAC
 40
1.0
  9
$DIMTOFL
 70
1
  9
$DIMTVP
 40
0.0
  9
$DIMTIX
 70
0
  9
$DIMSOXD
 70
0
  9
$DIMSAH
 70
0
  9
$DIMBLK1
  1

  9
$DIMBLK2
  1

  9
$DIMSTYLE
  2
ISO-25
  9
$DIMCLRD
 70
0
  9
$DIMCLRE
 70
0
  9
$DIMCLRT
 70
0
  9
$DIMTFAC
 40
1.0
  9
$DIMGAP
 40
0.625
  9
$DIMJUST
 70
0
  9
$DIMSD1
 70
0
  9
$DIMSD2
 70
0
  9
$DIMTOLJ
 70
0
  9
$DIMTZIN
 70
8
  9
$DIMALTZ
 70
0
  9
$DIMALTTZ
 70
0
  9
$DIMUPT
 70
0
  9
$DIMDEC
 70
2
  9
$DIMTDEC
 70
2
  9
$DIMALTU
 70
2
  9
$DIMALTTD
 70
3
  9
$DIMTXSTY
  7
Standard
  9
$DIMAUNIT
 70
0
  9
$DIMADEC
 70
0
  9
$DIMALTRND
 40
0.0
  9
$DIMAZIN
 70
0
  9
$DIMDSEP
 70
44
  9
$DIMATFIT
 70
3
  9
$DIMFRAC
 70
0
  9
$DIMLDRBLK
  1

  9
$DIMLUNIT
 70
2
  9
$DIMLWD
 70
-2
  9
$DIMLWE
 70
-2
  9
$DIMTMOVE
 70
0
  9
$DIMFXL
 40
1.0
  9
$DIMFXLON
 70
0
  9
$DIMJOGANG
 40
0.785398163397
  9
$DIMTFILL
 70
0
  9
$DIMTFILLCLR
 70
0
  9
$DIMARCSYM
 70
0
  9
$DIMLTYPE
  6

  9
$DIMLTEX1
  6

  9
$DIMLTEX2
  6

  9
$DIMTXTDIRECTION
 70
0
  9
$LUNITS
 70
2
  9
$LUPREC
 70
4
  9
$SKETCHINC
 40
1.0
  9
$FILLETRAD
 40
10.0
  9
$AUNITS
 70
0
  9
$AUPREC
 70
2
  9
$MENU
  1
.
  9
$ELEVATION
 40
0.0
  9
$PELEVATION
 40
0.0
  9
$THICKNESS
 40
0.0
  9
$LIMCHECK
 70
0
  9
$CHAMFERA
 40
0.0
  9
$CHAMFERB
 40
0.0
  9
$CHAMFERC
 40
0.0
  9
$CHAMFERD
 40
0.0
  9
$SKPOLY
 70
0
  9
$TDCREATE
 40
2461235.596238426
  9
$TDUCREATE
 40
2458532.153996898
  9
$TDUPDATE
 40
2461235.596238426
  9
$TDUUPDATE
 40
2458532.1544311
  9
$TDINDWG
 40
0.0
  9
$TDUSRTIMER
 40
0.0
  9
$USRTIMER
 70
1
  9
$ANGBASE
 50
0.0
  9
$ANGDIR
 70
0
  9
$PDMODE
 70
0
  9
$PDSIZE
 40
0.0
  9
$PLINEWID
 40
0.0
  9
$SPLFRAME
 70
0
  9
$SPLINETYPE
 70
6
  9
$SPLINESEGS
 70
8
  9
$HANDSEED
  5
A2
  9
$SURFTAB1
 70
6
  9
$SURFTAB2
 70
6
  9
$SURFTYPE
 70
6
  9
$SURFU
 70
6
  9
$SURFV
 70
6
  9
$UCSBASE
  2

  9
$UCSNAME
  2

  9
$UCSORG
 10
0.0
 20
0.0
 30
0.0
  9
$UCSXDIR
 10
1.0
 20
0.0
 30
0.0
  9
$UCSYDIR
 10
0.0
 20
1.0
 30
0.0
  9
$UCSORTHOREF
  2

  9
$UCSORTHOVIEW
 70
0
  9
$UCSORGTOP
 10
0.0
 20
0.0
 30
0.0
  9
$UCSORGBOTTOM
 10
0.0
 20
0.0
 30
0.0
  9
$UCSORGLEFT
 10
0.0
 20
0.0
 30
0.0
  9
$UCSORGRIGHT
 10
0.0
 20
0.0
 30
0.0
  9
$UCSORGFRONT
 10
0.0
 20
0.0
 30
0.0
  9
$UCSORGBACK
 10
0.0
 20
0.0
 30
0.0
  9
$PUCSBASE
  2

  9
$PUCSNAME
  2

  9
$PUCSORG
 10
0.0
 20
0.0
 30
0.0
  9
$PUCSXDIR
 10
1.0
 20
0.0
 30
0.0
  9
$PUCSYDIR
 10
0.0
 20
1.0
 30
0.0
  9
$PUCSORTHOREF
  2

  9
$PUCSORTHOVIEW
 70
0
  9
$PUCSORGTOP
 10
0.0
 20
0.0
 30
0.0
  9
$PUCSORGBOTTOM
 10
0.0
 20
0.0
 30
0.0
  9
$PUCSORGLEFT
 10
0.0
 20
0.0
 30
0.0
  9
$PUCSORGRIGHT
 10
0.0
 20
0.0
 30
0.0
  9
$PUCSORGFRONT
 10
0.0
 20
0.0
 30
0.0
  9
$PUCSORGBACK
 10
0.0
 20
0.0
 30
0.0
  9
$USERI1
 70
0
  9
$USERI2
 70
0
  9
$USERI3
 70
0
  9
$USERI4
 70
0
  9
$USERI5
 70
0
  9
$USERR1
 40
0.0
  9
$USERR2
 40
0.0
  9
$USERR3
 40
0.0
  9
$USERR4
 40
0.0
  9
$USERR5
 40
0.0
  9
$WORLDVIEW
 70
1
  9
$SHADEDGE
 70
3
  9
$SHADEDIF
 70
70
  9
$TILEMODE
 70
1
  9
$MAXACTVP
 70
64
  9
$PINSBASE
 10
0.0
 20
0.0
 30
0.0
  9
$PLIMCHECK
 70
0
  9
$PEXTMIN
 10
1e+20
 20
1e+20
 30
1e+20
  9
$PEXTMAX
 10
-1e+20
 20
-1e+20
 30
-1e+20
  9
$PLIMMIN
 10
0.0
 20
0.0
  9
$PLIMMAX
 10
420.0
 20
297.0
  9
$UNITMODE
 70
0
  9
$VISRETAIN
 70
1
  9
$PLINEGEN
 70
0
  9
$PSLTSCALE
 70
1
  9
$TREEDEPTH
 70
3020
  9
$CMLSTYLE
  2
Standard
  9
$CMLJUST
 70
0
  9
$CMLSCALE
 40
20.0
  9
$PROXYGRAPHICS
 70
1
  9
$MEASUREMENT
 70
1
  9
$CELWEIGHT
370
-1
  9
$ENDCAPS
280
0
  9
$JOINSTYLE
280
0
  9
$LWDISPLAY
290
0
  9
$INSUNITS
 70
6
  9
$HYPERLINKBASE
  1

  9
$STYLESHEET
  1

  9
$XEDIT
290
1
  9
$CEPSNTYPE
380
0
  9
$PSTYLEMODE
290
1
  9
$FINGERPRINTGUID
  2
{DD012913-BE0F-4335-B4C9-4CFC8567BB79}
  9
$VERSIONGUID
  2
{F567BFDC-016D-4856-A42D-F0D68BBBB51C}
  9
$EXTNAMES
290
1
  9
$PSVPSCALE
 40
0.0
  9
$OLESTARTUP
290
0
  9
$SORTENTS
280
127
  9
$INDEXCTL
280
0
  9
$HIDETEXT
280
1
  9
$XCLIPFRAME
280
1
  9
$HALOGAP
280
0
  9
$OBSCOLOR
 70
257
  9
$OBSLTYPE
280
0
  9
$INTERSECTIONDISPLAY
280
0
  9
$INTERSECTIONCOLOR
 70
257
  9
$DIMASSOC
280
2
  9
$PROJECTNAME
  1

  9
$CAMERADISPLAY
290
0
  9
$LENSLENGTH
 40
50.0
  9
$CAMERAHEIGHT
 40
0.0
  9
$STEPSPERSEC
 40
24.0
  9
$STEPSIZE
 40
100.0
  9
$3DDWFPREC
 40
2.0
  9
$PSOLWIDTH
 40
0.005
  9
$PSOLHEIGHT
 40
0.08
  9
$LOFTANG1
 40
1.570796326795
  9
$LOFTANG2
 40
1.570796326795
  9
$LOFTMAG1
 40
0.0
  9
$LOFTMAG2
 40
0.0
  9
$LOFTPARAM
 70
7
  9
$LOFTNORMALS
280
1
  9
$LATITUDE
 40
37.795
  9
$LONGITUDE
 40
-122.394
  9
$NORTHDIRECTION
 40
0.0
  9
$TIMEZONE
 70
-8000
  9
$LIGHTGLYPHDISPLAY
280
1
  9
$TILEMODELIGHTSYNCH
280
1
  9
$CMATERIAL
347
20
  9
$SOLIDHIST
280
0
  9
$SHOWHIST
280
1
  9
$DWFFRAME
280
2
  9
$DGNFRAME
280
2
  9
$REALWORLDSCALE
290
1
  9
$INTERFERECOLOR
 62
256
  9
$CSHADOW
280
0
  9
$SHADOWPLANELOCATION
 40
0.0
  0
ENDSEC
  0
SECTION
  2
CLASSES
  0
CLASS
  1
ACDBDICTIONARYWDFLT
  2
AcDbDictionaryWithDefault
  3
ObjectDBX Classes
 90
0
 91
0
280
0
281
0
  0
CLASS
  1
SUN
  2
AcDbSun
  3
SCENEOE
 90
1153
 91
0
280
0
281
0
  0
CLASS
  1
VISUALSTYLE
  2
AcDbVisualStyle
  3
ObjectDBX Classes
 90
4095
 91
0
280
0
281
0
  0
CLASS
  1
MATERIAL
  2
AcDbMaterial
  3
ObjectDBX Classes
 90
1153
 91
0
280
0
281
0
  0
CLASS
  1
SCALE
  2
AcDbScale
  3
ObjectDBX Classes
 90
1153
 91
0
280
0
281
0
  0
CLASS
  1
TABLESTYLE
  2
AcDbTableStyle
  3
ObjectDBX Classes
 90
4095
 91
0
280
0
281
0
  0
CLASS
  1
MLEADERSTYLE
  2
AcDbMLeaderStyle
  3
ACDB_MLEADERSTYLE_CLASS
 90
4095
 91
0
280
0
281
0
  0
CLASS
  1
DICTIONARYVAR
  2
AcDbDictionaryVar
  3
ObjectDBX Classes
 90
0
 91
0
280
0
281
0
  0
CLASS
  1
CELLSTYLEMAP
  2
AcDbCellStyleMap
  3
ObjectDBX Classes
 90
1152
 91
0
280
0
281
0
  0
CLASS
  1
MENTALRAYRENDERSETTINGS
  2
AcDbMentalRayRenderSettings
  3
SCENEOE
 90
1024
 91
0
280
0
281
0
  0
CLASS
  1
ACDBDETAILVIEWSTYLE
  2
AcDbDetailViewStyle
  3
ObjectDBX Classes
 90
1025
 91
0
280
0
281
0
  0
CLASS
  1
ACDBSECTIONVIEWSTYLE
  2
AcDbSectionViewStyle
  3
ObjectDBX Classes
 90
1025
 91
0
280
0
281
0
  0
CLASS
  1
RASTERVARIABLES
  2
AcDbRasterVariables
  3
ISM
 90
0
 91
0
280
0
281
0
  0
CLASS
  1
ACDBPLACEHOLDER
  2
AcDbPlaceHolder
  3
ObjectDBX Classes
 90
0
 91
0
280
0
281
0
  0
CLASS
  1
LAYOUT
  2
AcDbLayout
  3
ObjectDBX Classes
 90
0
 91
0
280
0
281
0
  0
ENDSEC
  0
SECTION
  2
TABLES
  0
TABLE
  2
VPORT
  5
8
330
0
100
AcDbSymbolTable
 70
1
  0
VPORT
  5
23
330
8
100
AcDbSymbolTableRecord
100
AcDbViewportTableRecord
  2
*Active
 70
0
 10
0.0
 20
0.0
 11
1.0
 21
1.0
 12
0.0
 22
0.0
 13
0.0
 23
0.0
 14
0.5
 24
0.5
 15
0.5
 25
0.5
 16
0.0
 26
0.0
 36
1.0
 17
0.0
 27
0.0
 37
0.0
 40
1000.0
 41
1.34
 42
50.0
 43
0.0
 44
0.0
 50
0.0
 51
0.0
 71
0
 72
1000
 73
1
 74
3
 75
0
 76
0
 77
0
 78
0
281
0
 65
0
146
0.0
  0
ENDTAB
  0
TABLE
  2
LTYPE
  5
2
330
0
100
AcDbSymbolTable
 70
3
  0
LTYPE
  5
24
330
2
100
AcDbSymbolTableRecord
100
AcDbLinetypeTableRecord
  2
ByBlock
 70
0
  3

 72
65
 73
0
 40
0.0
  0
LTYPE
  5
25
330
2
100
AcDbSymbolTableRecord
100
AcDbLinetypeTableRecord
  2
ByLayer
 70
0
  3

 72
65
 73
0
 40
0.0
  0
LTYPE
  5
26
330
2
100
AcDbSymbolTableRecord
100
AcDbLinetypeTableRecord
  2
Continuous
 70
0
  3

 72
65
 73
0
 40
0.0
  0
ENDTAB
  0
TABLE
  2
LAYER
  5
1
330
0
100
AcDbSymbolTable
 70
5
  0
LAYER
  5
27
330
1
100
AcDbSymbolTableRecord
100
AcDbLayerTableRecord
  2
0
 70
0
 62
7
  6
Continuous
370
-3
390
13
347
21
  0
LAYER
  5
28
330
1
100
AcDbSymbolTableRecord
100
AcDbLayerTableRecord
  2
Defpoints
 70
0
 62
7
  6
Continuous
290
0
370
-3
390
13
347
21
  0
LAYER
  5
2F
330
1
100
AcDbSymbolTableRecord
100
AcDbLayerTableRecord
  2
SURVEY_BOUNDARY
 70
0
 62
2
  6
CONTINUOUS
370
-3
390
13
347
21
  0
LAYER
  5
30
330
1
100
AcDbSymbolTableRecord
100
AcDbLayerTableRecord
  2
SURVEY_POINTS
 70
0
 62
1
  6
CONTINUOUS
370
-3
390
13
347
21
  0
LAYER
  5
31
330
1
100
AcDbSymbolTableRecord
100
AcDbLayerTableRecord
  2
SURVEY_LABELS
 70
0
 62
3
  6
CONTINUOUS
370
-3
390
13
347
21
  0
ENDTAB
  0
TABLE
  2
STYLE
  5
5
330
0
100
AcDbSymbolTable
 70
1
  0
STYLE
  5
29
330
5
100
AcDbSymbolTableRecord
100
AcDbTextStyleTableRecord
  2
Standard
 70
0
 40
0.0
 41
1.0
 50
0.0
 71
0
 42
2.5
  3
txt
  4

  0
ENDTAB
  0
TABLE
  2
VIEW
  5
7
330
0
100
AcDbSymbolTable
 70
0
  0
ENDTAB
  0
TABLE
  2
UCS
  5
6
330
0
100
AcDbSymbolTable
 70
0
  0
ENDTAB
  0
TABLE
  2
APPID
  5
3
330
0
100
AcDbSymbolTable
 70
3
  0
APPID
  5
2A
330
3
100
AcDbSymbolTableRecord
100
AcDbRegAppTableRecord
  2
ACAD
 70
0
  0
APPID
  5
9F
330
3
100
AcDbSymbolTableRecord
100
AcDbRegAppTableRecord
  2
HATCHBACKGROUNDCOLOR
 70
0
  0
APPID
  5
A0
330
3
100
AcDbSymbolTableRecord
100
AcDbRegAppTableRecord
  2
EZDXF
 70
0
  0
ENDTAB
  0
TABLE
  2
DIMSTYLE
  5
4
330
0
100
AcDbSymbolTable
 70
1
100
AcDbDimStyleTable
  0
DIMSTYLE
105
2B
330
4
100
AcDbSymbolTableRecord
100
AcDbDimStyleTableRecord
  2
Standard
 70
0
 40
1.0
 41
2.5
 42
0.625
 43
3.75
 44
1.25
 45
0.0
 46
0.0
 47
0.0
 48
0.0
 49
2.5
140
2.5
141
2.5
142
0.0
143
0.03937007874
144
1.0
145
0.0
146
1.0
147
0.625
148
0.0
 69
0
 70
0
 71
0
 72
0
 73
0
 74
0
 75
0
 76
0
 77
1
 78
8
 79
3
170
0
171
3
172
1
173
0
174
0
175
0
176
0
177
0
178
0
179
2
271
2
272
2
273
2
274
3
275
0
276
0
277
2
278
44
279
0
280
0
281
0
282
0
283
0
284
8
285
0
286
0
288
0
289
3
290
0
371
-2
372
-2
  0
ENDTAB
  0
TABLE
  2
BLOCK_RECORD
  5
9
330
0
100
AcDbSymbolTable
 70
2
  0
BLOCK_RECORD
  5
17
330
9
100
AcDbSymbolTableRecord
100
AcDbBlockTableRecord
  2
*Model_Space
340
1A
 70
0
280
1
281
0
  0
BLOCK_RECORD
  5
1B
330
9
100
AcDbSymbolTableRecord
100
AcDbBlockTableRecord
  2
*Paper_Space
340
1E
 70
0
280
1
281
0
  0
ENDTAB
  0
ENDSEC
  0
SECTION
  2
BLOCKS
  0
BLOCK
  5
18
330
17
100
AcDbEntity
  8
0
100
AcDbBlockBegin
  2
*Model_Space
 70
0
 10
0.0
 20
0.0
 30
0.0
  3
*Model_Space
  1

  0
ENDBLK
  5
19
330
17
100
AcDbEntity
  8
0
100
AcDbBlockEnd
  0
BLOCK
  5
1C
330
1B
100
AcDbEntity
  8
0
100
AcDbBlockBegin
  2
*Paper_Space
 70
0
 10
0.0
 20
0.0
 30
0.0
  3
*Paper_Space
  1

  0
ENDBLK
  5
1D
330
1B
100
AcDbEntity
  8
0
100
AcDbBlockEnd
  0
ENDSEC
  0
SECTION
  2
ENTITIES
  0
LWPOLYLINE
  5
32
330
17
100
AcDbEntity
  8
SURVEY_BOUNDARY
 62
2
370
30
100
AcDbPolyline
 90
54
 70
1
 10
518980.691
 20
2350645.822
 10
518964.561
 20
2350654.358
 10
518936.209
 20
2350666.214
 10
518915.39
 20
2350676.073
 10
518906.102
 20
2350680.038
 10
518867.815
 20
2350697.903
 10
518835.675
 20
2350714.348
 10
518826.9
 20
2350718.202
 10
518845.537
 20
2350751.045
 10
518859.455
 20
2350780.042
 10
518873.34
 20
2350815.187
 10
518864.332
 20
2350836.281
 10
518890.923
 20
2350848.081
 10
518956.595
 20
2350815.014
 10
519018.849
 20
2350785.884
 10
519046.821
 20
2350774.499
 10
519056.759
 20
2350794.27
 10
519067.008
 20
2350819.441
 10
519085.655
 20
2350854.137
 10
519094.701
 20
2350860.524
 10
519104.433
 20
2350909.244
 10
519113.287
 20
2350938.614
 10
519118.899
 20
2350962.339
 10
519132.274
 20
2350993.803
 10
519137.052
 20
2351023.703
 10
519141.092
 20
2351038.57
 10
519145.423
 20
2351064.383
 10
519149.197
 20
2351093.693
 10
519181.131
 20
2351081.729
 10
519205.139
 20
2351074.744
 10
519251.593
 20
2351059.471
 10
519286.497
 20
2351048.703
 10
519313.513
 20
2351040.364
 10
519337.511
 20
2351037.621
 10
519378.379
 20
2351031.715
 10
519419.247
 20
2351025.808
 10
519464.104
 20
2351017.637
 10
519495.164
 20
2351012.178
 10
519482.763
 20
2350958.928
 10
519475.519
 20
2350891.503
 10
519471.773
 20
2350855.215
 10
519466.802
 20
2350814.042
 10
519463.048
 20
2350778.434
 10
519455.469
 20
2350749.169
 10
519443.666
 20
2350715.075
 10
519436.816
 20
2350696.657
 10
519436.414
 20
2350682.609
 10
519429.004
 20
2350658.877
 10
519418.411
 20
2350636.303
 10
519408.872
 20
2350619.179
 10
519396.235
 20
2350599.529
 10
519394.644
 20
2350591.091
 10
519388.473
 20
2350580.799
 10
519340.813
 20
2350581.465
  0
POINT
  5
33
330
17
100
AcDbEntity
  8
SURVEY_POINTS
 62
1
100
AcDbPoint
 10
518980.691
 20
2350645.822
 30
0.0
  0
POINT
  5
34
330
17
100
AcDbEntity
  8
SURVEY_POINTS
 62
1
100
AcDbPoint
 10
518964.561
 20
2350654.358
 30
0.0
  0
POINT
  5
35
330
17
100
AcDbEntity
  8
SURVEY_POINTS
 62
1
100
AcDbPoint
 10
518936.209
 20
2350666.214
 30
0.0
  0
POINT
  5
36
330
17
100
AcDbEntity
  8
SURVEY_POINTS
 62
1
100
AcDbPoint
 10
518915.39
 20
2350676.073
 30
0.0
  0
POINT
  5
37
330
17
100
AcDbEntity
  8
SURVEY_POINTS
 62
1
100
AcDbPoint
 10
518906.102
 20
2350680.038
 30
0.0
  0
POINT
  5
38
330
17
100
AcDbEntity
  8
SURVEY_POINTS
 62
1
100
AcDbPoint
 10
518867.815
 20
2350697.903
 30
0.0
  0
POINT
  5
39
330
17
100
AcDbEntity
  8
SURVEY_POINTS
 62
1
100
AcDbPoint
 10
518835.675
 20
2350714.348
 30
0.0
  0
POINT
  5
3A
330
17
100
AcDbEntity
  8
SURVEY_POINTS
 62
1
100
AcDbPoint
 10
518826.9
 20
2350718.202
 30
0.0
  0
POINT
  5
3B
330
17
100
AcDbEntity
  8
SURVEY_POINTS
 62
1
100
AcDbPoint
 10
518845.537
 20
2350751.045
 30
0.0
  0
POINT
  5
3C
330
17
100
AcDbEntity
  8
SURVEY_POINTS
 62
1
100
AcDbPoint
 10
518859.455
 20
2350780.042
 30
0.0
  0
POINT
  5
3D
330
17
100
AcDbEntity
  8
SURVEY_POINTS
 62
1
100
AcDbPoint
 10
518873.34
 20
2350815.187
 30
0.0
  0
POINT
  5
3E
330
17
100
AcDbEntity
  8
SURVEY_POINTS
 62
1
100
AcDbPoint
 10
518864.332
 20
2350836.281
 30
0.0
  0
POINT
  5
3F
330
17
100
AcDbEntity
  8
SURVEY_POINTS
 62
1
100
AcDbPoint
 10
518890.923
 20
2350848.081
 30
0.0
  0
POINT
  5
40
330
17
100
AcDbEntity
  8
SURVEY_POINTS
 62
1
100
AcDbPoint
 10
518956.595
 20
2350815.014
 30
0.0
  0
POINT
  5
41
330
17
100
AcDbEntity
  8
SURVEY_POINTS
 62
1
100
AcDbPoint
 10
519018.849
 20
2350785.884
 30
0.0
  0
POINT
  5
42
330
17
100
AcDbEntity
  8
SURVEY_POINTS
 62
1
100
AcDbPoint
 10
519046.821
 20
2350774.499
 30
0.0
  0
POINT
  5
43
330
17
100
AcDbEntity
  8
SURVEY_POINTS
 62
1
100
AcDbPoint
 10
519056.759
 20
2350794.27
 30
0.0
  0
POINT
  5
44
330
17
100
AcDbEntity
  8
SURVEY_POINTS
 62
1
100
AcDbPoint
 10
519067.008
 20
2350819.441
 30
0.0
  0
POINT
  5
45
330
17
100
AcDbEntity
  8
SURVEY_POINTS
 62
1
100
AcDbPoint
 10
519085.655
 20
2350854.137
 30
0.0
  0
POINT
  5
46
330
17
100
AcDbEntity
  8
SURVEY_POINTS
 62
1
100
AcDbPoint
 10
519094.701
 20
2350860.524
 30
0.0
  0
POINT
  5
47
330
17
100
AcDbEntity
  8
SURVEY_POINTS
 62
1
100
AcDbPoint
 10
519104.433
 20
2350909.244
 30
0.0
  0
POINT
  5
48
330
17
100
AcDbEntity
  8
SURVEY_POINTS
 62
1
100
AcDbPoint
 10
519113.287
 20
2350938.614
 30
0.0
  0
POINT
  5
49
330
17
100
AcDbEntity
  8
SURVEY_POINTS
 62
1
100
AcDbPoint
 10
519118.899
 20
2350962.339
 30
0.0
  0
POINT
  5
4A
330
17
100
AcDbEntity
  8
SURVEY_POINTS
 62
1
100
AcDbPoint
 10
519132.274
 20
2350993.803
 30
0.0
  0
POINT
  5
4B
330
17
100
AcDbEntity
  8
SURVEY_POINTS
 62
1
100
AcDbPoint
 10
519137.052
 20
2351023.703
 30
0.0
  0
POINT
  5
4C
330
17
100
AcDbEntity
  8
SURVEY_POINTS
 62
1
100
AcDbPoint
 10
519141.092
 20
2351038.57
 30
0.0
  0
POINT
  5
4D
330
17
100
AcDbEntity
  8
SURVEY_POINTS
 62
1
100
AcDbPoint
 10
519145.423
 20
2351064.383
 30
0.0
  0
POINT
  5
4E
330
17
100
AcDbEntity
  8
SURVEY_POINTS
 62
1
100
AcDbPoint
 10
519149.197
 20
2351093.693
 30
0.0
  0
POINT
  5
4F
330
17
100
AcDbEntity
  8
SURVEY_POINTS
 62
1
100
AcDbPoint
 10
519181.131
 20
2351081.729
 30
0.0
  0
POINT
  5
50
330
17
100
AcDbEntity
  8
SURVEY_POINTS
 62
1
100
AcDbPoint
 10
519205.139
 20
2351074.744
 30
0.0
  0
POINT
  5
51
330
17
100
AcDbEntity
  8
SURVEY_POINTS
 62
1
100
AcDbPoint
 10
519251.593
 20
2351059.471
 30
0.0
  0
POINT
  5
52
330
17
100
AcDbEntity
  8
SURVEY_POINTS
 62
1
100
AcDbPoint
 10
519286.497
 20
2351048.703
 30
0.0
  0
POINT
  5
53
330
17
100
AcDbEntity
  8
SURVEY_POINTS
 62
1
100
AcDbPoint
 10
519313.513
 20
2351040.364
 30
0.0
  0
POINT
  5
54
330
17
100
AcDbEntity
  8
SURVEY_POINTS
 62
1
100
AcDbPoint
 10
519337.511
 20
2351037.621
 30
0.0
  0
POINT
  5
55
330
17
100
AcDbEntity
  8
SURVEY_POINTS
 62
1
100
AcDbPoint
 10
519378.379
 20
2351031.715
 30
0.0
  0
POINT
  5
56
330
17
100
AcDbEntity
  8
SURVEY_POINTS
 62
1
100
AcDbPoint
 10
519419.247
 20
2351025.808
 30
0.0
  0
POINT
  5
57
330
17
100
AcDbEntity
  8
SURVEY_POINTS
 62
1
100
AcDbPoint
 10
519464.104
 20
2351017.637
 30
0.0
  0
POINT
  5
58
330
17
100
AcDbEntity
  8
SURVEY_POINTS
 62
1
100
AcDbPoint
 10
519495.164
 20
2351012.178
 30
0.0
  0
POINT
  5
59
330
17
100
AcDbEntity
  8
SURVEY_POINTS
 62
1
100
AcDbPoint
 10
519482.763
 20
2350958.928
 30
0.0
  0
POINT
  5
5A
330
17
100
AcDbEntity
  8
SURVEY_POINTS
 62
1
100
AcDbPoint
 10
519475.519
 20
2350891.503
 30
0.0
  0
POINT
  5
5B
330
17
100
AcDbEntity
  8
SURVEY_POINTS
 62
1
100
AcDbPoint
 10
519471.773
 20
2350855.215
 30
0.0
  0
POINT
  5
5C
330
17
100
AcDbEntity
  8
SURVEY_POINTS
 62
1
100
AcDbPoint
 10
519466.802
 20
2350814.042
 30
0.0
  0
POINT
  5
5D
330
17
100
AcDbEntity
  8
SURVEY_POINTS
 62
1
100
AcDbPoint
 10
519463.048
 20
2350778.434
 30
0.0
  0
POINT
  5
5E
330
17
100
AcDbEntity
  8
SURVEY_POINTS
 62
1
100
AcDbPoint
 10
519455.469
 20
2350749.169
 30
0.0
  0
POINT
  5
5F
330
17
100
AcDbEntity
  8
SURVEY_POINTS
 62
1
100
AcDbPoint
 10
519443.666
 20
2350715.075
 30
0.0
  0
POINT
  5
60
330
17
100
AcDbEntity
  8
SURVEY_POINTS
 62
1
100
AcDbPoint
 10
519436.816
 20
2350696.657
 30
0.0
  0
POINT
  5
61
330
17
100
AcDbEntity
  8
SURVEY_POINTS
 62
1
100
AcDbPoint
 10
519436.414
 20
2350682.609
 30
0.0
  0
POINT
  5
62
330
17
100
AcDbEntity
  8
SURVEY_POINTS
 62
1
100
AcDbPoint
 10
519429.004
 20
2350658.877
 30
0.0
  0
POINT
  5
63
330
17
100
AcDbEntity
  8
SURVEY_POINTS
 62
1
100
AcDbPoint
 10
519418.411
 20
2350636.303
 30
0.0
  0
POINT
  5
64
330
17
100
AcDbEntity
  8
SURVEY_POINTS
 62
1
100
AcDbPoint
 10
519408.872
 20
2350619.179
 30
0.0
  0
POINT
  5
65
330
17
100
AcDbEntity
  8
SURVEY_POINTS
 62
1
100
AcDbPoint
 10
519396.235
 20
2350599.529
 30
0.0
  0
POINT
  5
66
330
17
100
AcDbEntity
  8
SURVEY_POINTS
 62
1
100
AcDbPoint
 10
519394.644
 20
2350591.091
 30
0.0
  0
POINT
  5
67
330
17
100
AcDbEntity
  8
SURVEY_POINTS
 62
1
100
AcDbPoint
 10
519388.473
 20
2350580.799
 30
0.0
  0
POINT
  5
68
330
17
100
AcDbEntity
  8
SURVEY_POINTS
 62
1
100
AcDbPoint
 10
519340.813
 20
2350581.465
 30
0.0
  0
TEXT
  5
69
330
17
100
AcDbEntity
  8
SURVEY_LABELS
 62
3
100
AcDbText
 10
518988.2725960947
 20
2350653.403596095
 30
0.0
 40
12.635993491200301
  1
B01
100
AcDbText
  0
TEXT
  5
6A
330
17
100
AcDbEntity
  8
SURVEY_LABELS
 62
3
100
AcDbText
 10
518972.1425960947
 20
2350661.9395960947
 30
0.0
 40
12.635993491200301
  1
B02
100
AcDbText
  0
TEXT
  5
6B
330
17
100
AcDbEntity
  8
SURVEY_LABELS
 62
3
100
AcDbText
 10
518943.7905960947
 20
2350673.795596095
 30
0.0
 40
12.635993491200301
  1
B03
100
AcDbText
  0
TEXT
  5
6C
330
17
100
AcDbEntity
  8
SURVEY_LABELS
 62
3
100
AcDbText
 10
518922.9715960947
 20
2350683.6545960945
 30
0.0
 40
12.635993491200301
  1
B04
100
AcDbText
  0
TEXT
  5
6D
330
17
100
AcDbEntity
  8
SURVEY_LABELS
 62
3
100
AcDbText
 10
518913.6835960947
 20
2350687.619596095
 30
0.0
 40
12.635993491200301
  1
B05
100
AcDbText
  0
TEXT
  5
6E
330
17
100
AcDbEntity
  8
SURVEY_LABELS
 62
3
100
AcDbText
 10
518875.3965960947
 20
2350705.4845960946
 30
0.0
 40
12.635993491200301
  1
B06
100
AcDbText
  0
TEXT
  5
6F
330
17
100
AcDbEntity
  8
SURVEY_LABELS
 62
3
100
AcDbText
 10
518843.2565960947
 20
2350721.929596095
 30
0.0
 40
12.635993491200301
  1
B07
100
AcDbText
  0
TEXT
  5
70
330
17
100
AcDbEntity
  8
SURVEY_LABELS
 62
3
100
AcDbText
 10
518834.48159609473
 20
2350725.7835960947
 30
0.0
 40
12.635993491200301
  1
B08
100
AcDbText
  0
TEXT
  5
71
330
17
100
AcDbEntity
  8
SURVEY_LABELS
 62
3
100
AcDbText
 10
518853.1185960947
 20
2350758.6265960946
 30
0.0
 40
12.635993491200301
  1
B09
100
AcDbText
  0
TEXT
  5
72
330
17
100
AcDbEntity
  8
SURVEY_LABELS
 62
3
100
AcDbText
 10
518867.0365960947
 20
2350787.6235960945
 30
0.0
 40
12.635993491200301
  1
B10
100
AcDbText
  0
TEXT
  5
73
330
17
100
AcDbEntity
  8
SURVEY_LABELS
 62
3
100
AcDbText
 10
518880.92159609473
 20
2350822.7685960946
 30
0.0
 40
12.635993491200301
  1
B11
100
AcDbText
  0
TEXT
  5
74
330
17
100
AcDbEntity
  8
SURVEY_LABELS
 62
3
100
AcDbText
 10
518871.9135960947
 20
2350843.8625960946
 30
0.0
 40
12.635993491200301
  1
B12
100
AcDbText
  0
TEXT
  5
75
330
17
100
AcDbEntity
  8
SURVEY_LABELS
 62
3
100
AcDbText
 10
518898.5045960947
 20
2350855.6625960944
 30
0.0
 40
12.635993491200301
  1
B13
100
AcDbText
  0
TEXT
  5
76
330
17
100
AcDbEntity
  8
SURVEY_LABELS
 62
3
100
AcDbText
 10
518964.1765960947
 20
2350822.5955960946
 30
0.0
 40
12.635993491200301
  1
B14
100
AcDbText
  0
TEXT
  5
77
330
17
100
AcDbEntity
  8
SURVEY_LABELS
 62
3
100
AcDbText
 10
519026.4305960947
 20
2350793.4655960947
 30
0.0
 40
12.635993491200301
  1
B15
100
AcDbText
  0
TEXT
  5
78
330
17
100
AcDbEntity
  8
SURVEY_LABELS
 62
3
100
AcDbText
 10
519054.4025960947
 20
2350782.0805960945
 30
0.0
 40
12.635993491200301
  1
B16
100
AcDbText
  0
TEXT
  5
79
330
17
100
AcDbEntity
  8
SURVEY_LABELS
 62
3
100
AcDbText
 10
519064.3405960947
 20
2350801.8515960947
 30
0.0
 40
12.635993491200301
  1
B17
100
AcDbText
  0
TEXT
  5
7A
330
17
100
AcDbEntity
  8
SURVEY_LABELS
 62
3
100
AcDbText
 10
519074.5895960947
 20
2350827.0225960948
 30
0.0
 40
12.635993491200301
  1
B18
100
AcDbText
  0
TEXT
  5
7B
330
17
100
AcDbEntity
  8
SURVEY_LABELS
 62
3
100
AcDbText
 10
519093.23659609474
 20
2350861.7185960948
 30
0.0
 40
12.635993491200301
  1
B19
100
AcDbText
  0
TEXT
  5
7C
330
17
100
AcDbEntity
  8
SURVEY_LABELS
 62
3
100
AcDbText
 10
519102.2825960947
 20
2350868.105596095
 30
0.0
 40
12.635993491200301
  1
B20
100
AcDbText
  0
TEXT
  5
7D
330
17
100
AcDbEntity
  8
SURVEY_LABELS
 62
3
100
AcDbText
 10
519112.0145960947
 20
2350916.8255960946
 30
0.0
 40
12.635993491200301
  1
B21
100
AcDbText
  0
TEXT
  5
7E
330
17
100
AcDbEntity
  8
SURVEY_LABELS
 62
3
100
AcDbText
 10
519120.8685960947
 20
2350946.1955960947
 30
0.0
 40
12.635993491200301
  1
B22
100
AcDbText
  0
TEXT
  5
7F
330
17
100
AcDbEntity
  8
SURVEY_LABELS
 62
3
100
AcDbText
 10
519126.4805960947
 20
2350969.920596095
 30
0.0
 40
12.635993491200301
  1
B23
100
AcDbText
  0
TEXT
  5
80
330
17
100
AcDbEntity
  8
SURVEY_LABELS
 62
3
100
AcDbText
 10
519139.8555960947
 20
2351001.3845960945
 30
0.0
 40
12.635993491200301
  1
B24
100
AcDbText
  0
TEXT
  5
81
330
17
100
AcDbEntity
  8
SURVEY_LABELS
 62
3
100
AcDbText
 10
519144.63359609473
 20
2351031.284596095
 30
0.0
 40
12.635993491200301
  1
B25
100
AcDbText
  0
TEXT
  5
82
330
17
100
AcDbEntity
  8
SURVEY_LABELS
 62
3
100
AcDbText
 10
519148.6735960947
 20
2351046.1515960945
 30
0.0
 40
12.635993491200301
  1
B26
100
AcDbText
  0
TEXT
  5
83
330
17
100
AcDbEntity
  8
SURVEY_LABELS
 62
3
100
AcDbText
 10
519153.0045960947
 20
2351071.9645960946
 30
0.0
 40
12.635993491200301
  1
B27
100
AcDbText
  0
TEXT
  5
84
330
17
100
AcDbEntity
  8
SURVEY_LABELS
 62
3
100
AcDbText
 10
519156.7785960947
 20
2351101.2745960946
 30
0.0
 40
12.635993491200301
  1
B28
100
AcDbText
  0
TEXT
  5
85
330
17
100
AcDbEntity
  8
SURVEY_LABELS
 62
3
100
AcDbText
 10
519188.7125960947
 20
2351089.3105960945
 30
0.0
 40
12.635993491200301
  1
B29
100
AcDbText
  0
TEXT
  5
86
330
17
100
AcDbEntity
  8
SURVEY_LABELS
 62
3
100
AcDbText
 10
519212.72059609473
 20
2351082.3255960946
 30
0.0
 40
12.635993491200301
  1
B30
100
AcDbText
  0
TEXT
  5
87
330
17
100
AcDbEntity
  8
SURVEY_LABELS
 62
3
100
AcDbText
 10
519259.1745960947
 20
2351067.0525960946
 30
0.0
 40
12.635993491200301
  1
B31
100
AcDbText
  0
TEXT
  5
88
330
17
100
AcDbEntity
  8
SURVEY_LABELS
 62
3
100
AcDbText
 10
519294.0785960947
 20
2351056.284596095
 30
0.0
 40
12.635993491200301
  1
B32
100
AcDbText
  0
TEXT
  5
89
330
17
100
AcDbEntity
  8
SURVEY_LABELS
 62
3
100
AcDbText
 10
519321.0945960947
 20
2351047.9455960947
 30
0.0
 40
12.635993491200301
  1
B33
100
AcDbText
  0
TEXT
  5
8A
330
17
100
AcDbEntity
  8
SURVEY_LABELS
 62
3
100
AcDbText
 10
519345.0925960947
 20
2351045.2025960945
 30
0.0
 40
12.635993491200301
  1
B34
100
AcDbText
  0
TEXT
  5
8B
330
17
100
AcDbEntity
  8
SURVEY_LABELS
 62
3
100
AcDbText
 10
519385.9605960947
 20
2351039.2965960945
 30
0.0
 40
12.635993491200301
  1
B35
100
AcDbText
  0
TEXT
  5
8C
330
17
100
AcDbEntity
  8
SURVEY_LABELS
 62
3
100
AcDbText
 10
519426.8285960947
 20
2351033.389596095
 30
0.0
 40
12.635993491200301
  1
B36
100
AcDbText
  0
TEXT
  5
8D
330
17
100
AcDbEntity
  8
SURVEY_LABELS
 62
3
100
AcDbText
 10
519471.6855960947
 20
2351025.2185960948
 30
0.0
 40
12.635993491200301
  1
B37
100
AcDbText
  0
TEXT
  5
8E
330
17
100
AcDbEntity
  8
SURVEY_LABELS
 62
3
100
AcDbText
 10
519502.7455960947
 20
2351019.7595960945
 30
0.0
 40
12.635993491200301
  1
B38
100
AcDbText
  0
TEXT
  5
8F
330
17
100
AcDbEntity
  8
SURVEY_LABELS
 62
3
100
AcDbText
 10
519490.3445960947
 20
2350966.5095960945
 30
0.0
 40
12.635993491200301
  1
B39
100
AcDbText
  0
TEXT
  5
90
330
17
100
AcDbEntity
  8
SURVEY_LABELS
 62
3
100
AcDbText
 10
519483.1005960947
 20
2350899.0845960947
 30
0.0
 40
12.635993491200301
  1
B40
100
AcDbText
  0
TEXT
  5
91
330
17
100
AcDbEntity
  8
SURVEY_LABELS
 62
3
100
AcDbText
 10
519479.3545960947
 20
2350862.7965960945
 30
0.0
 40
12.635993491200301
  1
B41
100
AcDbText
  0
TEXT
  5
92
330
17
100
AcDbEntity
  8
SURVEY_LABELS
 62
3
100
AcDbText
 10
519474.38359609473
 20
2350821.6235960945
 30
0.0
 40
12.635993491200301
  1
B42
100
AcDbText
  0
TEXT
  5
93
330
17
100
AcDbEntity
  8
SURVEY_LABELS
 62
3
100
AcDbText
 10
519470.6295960947
 20
2350786.0155960945
 30
0.0
 40
12.635993491200301
  1
B43
100
AcDbText
  0
TEXT
  5
94
330
17
100
AcDbEntity
  8
SURVEY_LABELS
 62
3
100
AcDbText
 10
519463.0505960947
 20
2350756.750596095
 30
0.0
 40
12.635993491200301
  1
B44
100
AcDbText
  0
TEXT
  5
95
330
17
100
AcDbEntity
  8
SURVEY_LABELS
 62
3
100
AcDbText
 10
519451.24759609473
 20
2350722.656596095
 30
0.0
 40
12.635993491200301
  1
B45
100
AcDbText
  0
TEXT
  5
96
330
17
100
AcDbEntity
  8
SURVEY_LABELS
 62
3
100
AcDbText
 10
519444.3975960947
 20
2350704.238596095
 30
0.0
 40
12.635993491200301
  1
B46
100
AcDbText
  0
TEXT
  5
97
330
17
100
AcDbEntity
  8
SURVEY_LABELS
 62
3
100
AcDbText
 10
519443.9955960947
 20
2350690.190596095
 30
0.0
 40
12.635993491200301
  1
B47
100
AcDbText
  0
TEXT
  5
98
330
17
100
AcDbEntity
  8
SURVEY_LABELS
 62
3
100
AcDbText
 10
519436.5855960947
 20
2350666.4585960945
 30
0.0
 40
12.635993491200301
  1
B48
100
AcDbText
  0
TEXT
  5
99
330
17
100
AcDbEntity
  8
SURVEY_LABELS
 62
3
100
AcDbText
 10
519425.99259609473
 20
2350643.8845960945
 30
0.0
 40
12.635993491200301
  1
B49
100
AcDbText
  0
TEXT
  5
9A
330
17
100
AcDbEntity
  8
SURVEY_LABELS
 62
3
100
AcDbText
 10
519416.4535960947
 20
2350626.7605960947
 30
0.0
 40
12.635993491200301
  1
B50
100
AcDbText
  0
TEXT
  5
9B
330
17
100
AcDbEntity
  8
SURVEY_LABELS
 62
3
100
AcDbText
 10
519403.8165960947
 20
2350607.1105960947
 30
0.0
 40
12.635993491200301
  1
B51
100
AcDbText
  0
TEXT
  5
9C
330
17
100
AcDbEntity
  8
SURVEY_LABELS
 62
3
100
AcDbText
 10
519402.2255960947
 20
2350598.6725960947
 30
0.0
 40
12.635993491200301
  1
B52
100
AcDbText
  0
TEXT
  5
9D
330
17
100
AcDbEntity
  8
SURVEY_LABELS
 62
3
100
AcDbText
 10
519396.0545960947
 20
2350588.3805960948
 30
0.0
 40
12.635993491200301
  1
B53
100
AcDbText
  0
TEXT
  5
9E
330
17
100
AcDbEntity
  8
SURVEY_LABELS
 62
3
100
AcDbText
 10
519348.39459609473
 20
2350589.0465960945
 30
0.0
 40
12.635993491200301
  1
B54
100
AcDbText
  0
ENDSEC
  0
SECTION
  2
OBJECTS
  0
DICTIONARY
  5
A
330
0
100
AcDbDictionary
281
1
  3
ACAD_COLOR
350
B
  3
ACAD_GROUP
350
C
  3
ACAD_LAYOUT
350
D
  3
ACAD_MATERIAL
350
E
  3
ACAD_MLEADERSTYLE
350
F
  3
ACAD_MLINESTYLE
350
10
  3
ACAD_PLOTSETTINGS
350
11
  3
ACAD_PLOTSTYLENAME
350
12
  3
ACAD_SCALELIST
350
14
  3
ACAD_TABLESTYLE
350
15
  3
ACAD_VISUALSTYLE
350
16
  3
EZDXF_META
350
2D
  0
DICTIONARY
  5
B
330
A
100
AcDbDictionary
281
1
  0
DICTIONARY
  5
C
330
A
100
AcDbDictionary
281
1
  0
DICTIONARY
  5
D
330
A
100
AcDbDictionary
281
1
  3
Model
350
1A
  3
Layout1
350
1E
  0
DICTIONARY
  5
E
330
A
100
AcDbDictionary
281
1
  3
ByBlock
350
1F
  3
ByLayer
350
20
  3
Global
350
21
  0
DICTIONARY
  5
F
330
A
100
AcDbDictionary
281
1
  3
Standard
350
2C
  0
DICTIONARY
  5
10
330
A
100
AcDbDictionary
281
1
  3
Standard
350
22
  0
DICTIONARY
  5
11
330
A
100
AcDbDictionary
281
1
  0
ACDBDICTIONARYWDFLT
  5
12
330
A
100
AcDbDictionary
281
1
  3
Normal
350
13
100
AcDbDictionaryWithDefault
340
13
  0
ACDBPLACEHOLDER
  5
13
330
12
  0
DICTIONARY
  5
14
330
A
100
AcDbDictionary
281
1
  0
DICTIONARY
  5
15
330
A
100
AcDbDictionary
281
1
  0
DICTIONARY
  5
16
330
A
100
AcDbDictionary
281
1
  0
LAYOUT
  5
1A
330
D
100
AcDbPlotSettings
  1

  4
A3
  6

 40
7.5
 41
20.0
 42
7.5
 43
20.0
 44
420.0
 45
297.0
 46
0.0
 47
0.0
 48
0.0
 49
0.0
140
0.0
141
0.0
142
1.0
143
1.0
 70
1024
 72
1
 73
0
 74
5
  7

 75
16
 76
0
 77
2
 78
300
147
1.0
148
0.0
149
0.0
100
AcDbLayout
  1
Model
 70
1
 71
0
 10
0.0
 20
0.0
 11
420.0
 21
297.0
 12
0.0
 22
0.0
 32
0.0
 14
1e+20
 24
1e+20
 34
1e+20
 15
-1e+20
 25
-1e+20
 35
-1e+20
146
0.0
 13
0.0
 23
0.0
 33
0.0
 16
1.0
 26
0.0
 36
0.0
 17
0.0
 27
1.0
 37
0.0
 76
1
330
17
  0
LAYOUT
  5
1E
330
D
100
AcDbPlotSettings
  1

  4
A3
  6

 40
7.5
 41
20.0
 42
7.5
 43
20.0
 44
420.0
 45
297.0
 46
0.0
 47
0.0
 48
0.0
 49
0.0
140
0.0
141
0.0
142
1.0
143
1.0
 70
0
 72
1
 73
0
 74
5
  7

 75
16
 76
0
 77
2
 78
300
147
1.0
148
0.0
149
0.0
100
AcDbLayout
  1
Layout1
 70
1
 71
1
 10
0.0
 20
0.0
 11
420.0
 21
297.0
 12
0.0
 22
0.0
 32
0.0
 14
1e+20
 24
1e+20
 34
1e+20
 15
-1e+20
 25
-1e+20
 35
-1e+20
146
0.0
 13
0.0
 23
0.0
 33
0.0
 16
1.0
 26
0.0
 36
0.0
 17
0.0
 27
1.0
 37
0.0
 76
1
330
1B
  0
MATERIAL
  5
1F
102
{ACAD_REACTORS
330
E
102
}
330
E
100
AcDbMaterial
  1
ByBlock
  2

 70
0
 40
1.0
 71
1
 41
1.0
 91
-1023410177
 42
1.0
 72
1
  3

 73
1
 74
1
 75
1
 44
0.5
 73
0
 45
1.0
 46
1.0
 77
1
  4

 78
1
 79
1
170
1
 48
1.0
171
1
  6

172
1
173
1
174
1
140
1.0
141
1.0
175
1
  7

176
1
177
1
178
1
143
1.0
179
1
  8

270
1
271
1
272
1
145
1.0
146
1.0
273
1
  9

274
1
275
1
276
1
 42
1.0
 72
1
  3

 73
1
 74
1
 75
1
 94
63
  0
MATERIAL
  5
20
102
{ACAD_REACTORS
330
E
102
}
330
E
100
AcDbMaterial
  1
ByLayer
  2

 70
0
 40
1.0
 71
1
 41
1.0
 91
-1023410177
 42
1.0
 72
1
  3

 73
1
 74
1
 75
1
 44
0.5
 73
0
 45
1.0
 46
1.0
 77
1
  4

 78
1
 79
1
170
1
 48
1.0
171
1
  6

172
1
173
1
174
1
140
1.0
141
1.0
175
1
  7

176
1
177
1
178
1
143
1.0
179
1
  8

270
1
271
1
272
1
145
1.0
146
1.0
273
1
  9

274
1
275
1
276
1
 42
1.0
 72
1
  3

 73
1
 74
1
 75
1
 94
63
  0
MATERIAL
  5
21
102
{ACAD_REACTORS
330
E
102
}
330
E
100
AcDbMaterial
  1
Global
  2

 70
0
 40
1.0
 71
1
 41
1.0
 91
-1023410177
 42
1.0
 72
1
  3

 73
1
 74
1
 75
1
 44
0.5
 73
0
 45
1.0
 46
1.0
 77
1
  4

 78
1
 79
1
170
1
 48
1.0
171
1
  6

172
1
173
1
174
1
140
1.0
141
1.0
175
1
  7

176
1
177
1
178
1
143
1.0
179
1
  8

270
1
271
1
272
1
145
1.0
146
1.0
273
1
  9

274
1
275
1
276
1
 42
1.0
 72
1
  3

 73
1
 74
1
 75
1
 94
63
  0
MLINESTYLE
  5
22
102
{ACAD_REACTORS
330
10
102
}
330
10
100
AcDbMlineStyle
  2
Standard
 70
0
  3

 62
256
 51
90.0
 52
90.0
 71
2
 49
0.5
 62
256
  6
BYLAYER
 49
-0.5
 62
256
  6
BYLAYER
  0
MLEADERSTYLE
  5
2C
102
{ACAD_REACTORS
330
F
102
}
330
F
100
AcDbMLeaderStyle
179
2
170
2
171
1
172
0
 90
2
 40
0.0
 41
0.0
173
1
 91
-1056964608
 92
-2
290
1
 42
2.0
291
1
 43
8.0
  3
Standard
 44
4.0
300

342
29
174
1
175
1
176
0
178
1
 93
-1056964608
 45
4.0
292
0
297
0
 46
4.0
 94
-1056964608
 47
1.0
 49
1.0
140
1.0
294
1
141
0.0
177
0
142
1.0
295
0
296
0
143
3.75
271
0
272
9
273
9
  0
DICTIONARY
  5
2D
330
A
100
AcDbDictionary
280
1
281
1
  3
CREATED_BY_EZDXF
350
2E
  3
WRITTEN_BY_EZDXF
350
A1
  0
DICTIONARYVAR
  5
2E
330
2D
100
DictionaryVariables
280
0
  1
1.4.4 @ 2026-07-13T08:48:35.195632+00:00
  0
DICTIONARYVAR
  5
A1
330
2D
100
DictionaryVariables
280
0
  1
1.4.4 @ 2026-07-13T08:48:35.226773+00:00
  0
ENDSEC
  0
EOF
